<svg xmlns="http://www.w3.org/2000/svg" viewBox="0 0 960 820" font-family="'Courier New', monospace">
  <defs>
    <filter id="glow-green">
      <feGaussianBlur stdDeviation="3" result="blur"/>
      <feMerge><feMergeNode in="blur"/><feMergeNode in="SourceGraphic"/></feMerge>
    </filter>
    <filter id="glow-blue">
      <feGaussianBlur stdDeviation="4" result="blur"/>
      <feMerge><feMergeNode in="blur"/><feMergeNode in="SourceGraphic"/></feMerge>
    </filter>
    <filter id="glow-cyan">
      <feGaussianBlur stdDeviation="2.5" result="blur"/>
      <feMerge><feMergeNode in="blur"/><feMergeNode in="SourceGraphic"/></feMerge>
    </filter>

    <linearGradient id="azure-grad" x1="0%" y1="0%" x2="100%" y2="100%">
      <stop offset="0%" style="stop-color:#0078d4"/>
      <stop offset="100%" style="stop-color:#00bcf2"/>
    </linearGradient>

    <!-- Region backgrounds -->
    <linearGradient id="rg-us" x1="0%" y1="0%" x2="0%" y2="100%">
      <stop offset="0%" style="stop-color:#00ff41;stop-opacity:0.08"/>
      <stop offset="100%" style="stop-color:#00ff41;stop-opacity:0.02"/>
    </linearGradient>
    <linearGradient id="rg-eu" x1="0%" y1="0%" x2="0%" y2="100%">
      <stop offset="0%" style="stop-color:#0080ff;stop-opacity:0.08"/>
      <stop offset="100%" style="stop-color:#0080ff;stop-opacity:0.02"/>
    </linearGradient>
    <linearGradient id="rg-ap" x1="0%" y1="0%" x2="0%" y2="100%">
      <stop offset="0%" style="stop-color:#ff4081;stop-opacity:0.08"/>
      <stop offset="100%" style="stop-color:#ff4081;stop-opacity:0.02"/>
    </linearGradient>

    <symbol id="server-icon" viewBox="0 0 30 40">
      <rect x="2" y="2" width="26" height="36" rx="3" fill="none" stroke="currentColor" stroke-width="1.5"/>
      <line x1="2" y1="14" x2="28" y2="14" stroke="currentColor" stroke-width="1"/>
      <line x1="2" y1="26" x2="28" y2="26" stroke="currentColor" stroke-width="1"/>
      <circle cx="8" cy="8" r="2" fill="currentColor" opacity="0.8"/>
      <circle cx="8" cy="20" r="2" fill="currentColor" opacity="0.8"/>
      <circle cx="8" cy="32" r="2" fill="currentColor" opacity="0.8"/>
      <line x1="14" y1="8" x2="24" y2="8" stroke="currentColor" stroke-width="1" opacity="0.5"/>
      <line x1="14" y1="20" x2="24" y2="20" stroke="currentColor" stroke-width="1" opacity="0.5"/>
      <line x1="14" y1="32" x2="24" y2="32" stroke="currentColor" stroke-width="1" opacity="0.5"/>
    </symbol>

    <symbol id="user-icon" viewBox="0 0 24 24">
      <circle cx="12" cy="8" r="5" fill="none" stroke="currentColor" stroke-width="1.5"/>
      <path d="M2 22c0-5.5 4.5-10 10-10s10 4.5 10 10" fill="none" stroke="currentColor" stroke-width="1.5"/>
    </symbol>

    <!-- Marketplace icon -->
    <symbol id="market-icon" viewBox="0 0 24 24">
      <rect x="2" y="10" width="20" height="12" rx="1" fill="none" stroke="currentColor" stroke-width="1.2"/>
      <path d="M2 10 L5 3 L19 3 L22 10" fill="none" stroke="currentColor" stroke-width="1.2"/>
      <line x1="8" y1="10" x2="8" y2="22" stroke="currentColor" stroke-width="0.8" opacity="0.4"/>
      <line x1="16" y1="10" x2="16" y2="22" stroke="currentColor" stroke-width="0.8" opacity="0.4"/>
    </symbol>
  </defs>

  <!-- Background -->
  <rect width="960" height="820" fill="#0a0a0a"/>
  <pattern id="grid" width="30" height="30" patternUnits="userSpaceOnUse">
    <path d="M 30 0 L 0 0 0 30" fill="none" stroke="#00ff41" stroke-width="0.15" opacity="0.25"/>
  </pattern>
  <rect width="960" height="820" fill="url(#grid)"/>

  <!-- ==================== TITLE ==================== -->
  <text x="480" y="28" text-anchor="middle" fill="#00ff41" font-size="15" font-weight="bold" filter="url(#glow-green)">
    > PaaS MARKETPLACE PLATFORM — DEDICATED SUBSCRIPTIONS PER CLIENT_
    <animate attributeName="opacity" values="1;0.7;1" dur="3s" repeatCount="indefinite"/>
  </text>

  <!-- ==================== AZURE CLOUD ==================== -->
  <g transform="translate(480, 75)">
    <ellipse cx="0" cy="0" rx="140" ry="38" fill="url(#azure-grad)" opacity="0.12" stroke="#0078d4" stroke-width="1.5">
      <animate attributeName="ry" values="38;42;38" dur="4s" repeatCount="indefinite"/>
    </ellipse>
    <ellipse cx="-60" cy="-8" rx="70" ry="28" fill="url(#azure-grad)" opacity="0.08"/>
    <ellipse cx="60" cy="-8" rx="70" ry="28" fill="url(#azure-grad)" opacity="0.08"/>
    <text x="0" y="-5" text-anchor="middle" fill="#00bcf2" font-size="20" font-weight="bold" filter="url(#glow-blue)">AZURE</text>
    <text x="0" y="14" text-anchor="middle" fill="#0078d4" font-size="10">CLOUD PLATFORM</text>
    <ellipse cx="0" cy="0" rx="155" ry="44" fill="none" stroke="#0078d4" stroke-width="0.5" opacity="0.2">
      <animate attributeName="rx" values="155;165;155" dur="3s" repeatCount="indefinite"/>
      <animate attributeName="ry" values="44;48;44" dur="3s" repeatCount="indefinite"/>
      <animate attributeName="opacity" values="0.2;0.08;0.2" dur="3s" repeatCount="indefinite"/>
    </ellipse>
  </g>

  <!-- ==================== REGION LABELS ==================== -->
  <!-- Americas -->
  <rect x="15" y="125" width="295" height="22" rx="4" fill="rgba(0,255,65,0.08)" stroke="#00ff41" stroke-width="0.6"/>
  <text x="162" y="140" text-anchor="middle" fill="#00ff41" font-size="11" font-weight="bold" filter="url(#glow-green)">AMERICAS REGION</text>
  <!-- Europe -->
  <rect x="333" y="125" width="295" height="22" rx="4" fill="rgba(0,128,255,0.08)" stroke="#0080ff" stroke-width="0.6"/>
  <text x="480" y="140" text-anchor="middle" fill="#0080ff" font-size="11" font-weight="bold" filter="url(#glow-blue)">EUROPE REGION</text>
  <!-- APAC -->
  <rect x="651" y="125" width="295" height="22" rx="4" fill="rgba(255,64,129,0.08)" stroke="#ff4081" stroke-width="0.6"/>
  <text x="798" y="140" text-anchor="middle" fill="#ff4081" font-size="11" font-weight="bold">APAC REGION</text>

  <!-- Azure -> Region lines -->
  <line x1="390" y1="105" x2="162" y2="125" stroke="#00ff41" stroke-width="0.8" opacity="0.3" stroke-dasharray="5,5">
    <animate attributeName="stroke-dashoffset" values="0;-10" dur="1s" repeatCount="indefinite"/>
  </line>
  <line x1="480" y1="113" x2="480" y2="125" stroke="#0080ff" stroke-width="0.8" opacity="0.3" stroke-dasharray="5,5">
    <animate attributeName="stroke-dashoffset" values="0;-10" dur="1s" repeatCount="indefinite"/>
  </line>
  <line x1="570" y1="105" x2="798" y2="125" stroke="#ff4081" stroke-width="0.8" opacity="0.3" stroke-dasharray="5,5">
    <animate attributeName="stroke-dashoffset" values="0;-10" dur="1s" repeatCount="indefinite"/>
  </line>

  <!-- ====================================================================== -->
  <!-- ==================== AMERICAS SUBSCRIPTIONS ========================== -->
  <!-- ====================================================================== -->

  <!-- Region background -->
  <rect x="15" y="155" width="295" height="440" rx="6" fill="url(#rg-us)" stroke="#00ff41" stroke-width="0.4" stroke-dasharray="8,4" opacity="0.6"/>

  <!-- SUB: PaaS TechCorp -->
  <g transform="translate(25, 162)">
    <rect x="0" y="0" width="275" height="100" rx="5" fill="rgba(0,255,65,0.04)" stroke="#00ff41" stroke-width="1"/>
    <!-- Header -->
    <rect x="0" y="0" width="275" height="20" rx="5" fill="#00ff41" opacity="0.1"/>
    <rect x="0" y="10" width="275" height="10" fill="#00ff41" opacity="0.1"/>
    <circle cx="12" cy="10" r="4" fill="#00ff41" opacity="0.7">
      <animate attributeName="opacity" values="0.7;0.3;0.7" dur="1.2s" repeatCount="indefinite"/>
    </circle>
    <text x="22" y="14" fill="#00ff41" font-size="9" font-weight="bold">SUB: PaaS TechCorp</text>
    <text x="230" y="14" fill="#00ff41" font-size="7" opacity="0.5">East US</text>

    <!-- Marketplace -->
    <rect x="10" y="26" width="120" height="50" rx="4" fill="rgba(0,255,65,0.05)" stroke="#00ff41" stroke-width="0.6" stroke-dasharray="3,2"/>
    <use href="#market-icon" x="15" y="30" width="18" height="18" color="#00ff41" opacity="0.6"/>
    <text x="38" y="42" fill="#00ff41" font-size="8" font-weight="bold">MARKETPLACE</text>
    <use href="#server-icon" x="18" y="50" width="14" height="18" color="#00ff41" opacity="0.5"/>
    <use href="#server-icon" x="36" y="50" width="14" height="18" color="#00ff41" opacity="0.5"/>
    <use href="#server-icon" x="54" y="50" width="14" height="18" color="#00ff41" opacity="0.5"/>
    <text x="80" y="58" fill="#00ff41" font-size="7" opacity="0.4">AKS</text>
    <text x="80" y="67" fill="#00ff41" font-size="6" opacity="0.3">3 nodes</text>

    <!-- Services -->
    <rect x="140" y="26" width="60" height="16" rx="3" fill="rgba(0,255,65,0.06)" stroke="#00ff41" stroke-width="0.4"/>
    <text x="170" y="38" text-anchor="middle" fill="#00ff41" font-size="7">SQL DB</text>
    <rect x="205" y="26" width="60" height="16" rx="3" fill="rgba(0,255,65,0.06)" stroke="#00ff41" stroke-width="0.4"/>
    <text x="235" y="38" text-anchor="middle" fill="#00ff41" font-size="7">Redis</text>
    <rect x="140" y="48" width="60" height="16" rx="3" fill="rgba(0,255,65,0.06)" stroke="#00ff41" stroke-width="0.4"/>
    <text x="170" y="60" text-anchor="middle" fill="#00ff41" font-size="7">Storage</text>
    <rect x="205" y="48" width="60" height="16" rx="3" fill="rgba(0,255,65,0.06)" stroke="#00ff41" stroke-width="0.4"/>
    <text x="235" y="60" text-anchor="middle" fill="#00ff41" font-size="7">App GW</text>

    <text x="10" y="88" fill="#00ff41" font-size="7" opacity="0.4">> Status: ONLINE | Latency: 11ms | Orders: 2,340/day</text>
  </g>

  <!-- SUB: PaaS GlobalNet -->
  <g transform="translate(25, 272)">
    <rect x="0" y="0" width="275" height="100" rx="5" fill="rgba(0,255,65,0.04)" stroke="#00ff41" stroke-width="1"/>
    <rect x="0" y="0" width="275" height="20" rx="5" fill="#00ff41" opacity="0.1"/>
    <rect x="0" y="10" width="275" height="10" fill="#00ff41" opacity="0.1"/>
    <circle cx="12" cy="10" r="4" fill="#00ff41" opacity="0.7">
      <animate attributeName="opacity" values="0.3;0.7;0.3" dur="1.5s" repeatCount="indefinite"/>
    </circle>
    <text x="22" y="14" fill="#00ff41" font-size="9" font-weight="bold">SUB: PaaS GlobalNet</text>
    <text x="230" y="14" fill="#00ff41" font-size="7" opacity="0.5">West US</text>

    <rect x="10" y="26" width="120" height="50" rx="4" fill="rgba(0,255,65,0.05)" stroke="#00ff41" stroke-width="0.6" stroke-dasharray="3,2"/>
    <use href="#market-icon" x="15" y="30" width="18" height="18" color="#00ff41" opacity="0.6"/>
    <text x="38" y="42" fill="#00ff41" font-size="8" font-weight="bold">MARKETPLACE</text>
    <use href="#server-icon" x="18" y="50" width="14" height="18" color="#00ff41" opacity="0.5"/>
    <use href="#server-icon" x="36" y="50" width="14" height="18" color="#00ff41" opacity="0.5"/>
    <text x="58" y="58" fill="#00ff41" font-size="7" opacity="0.4">AKS</text>
    <text x="58" y="67" fill="#00ff41" font-size="6" opacity="0.3">2 nodes</text>

    <rect x="140" y="26" width="60" height="16" rx="3" fill="rgba(0,255,65,0.06)" stroke="#00ff41" stroke-width="0.4"/>
    <text x="170" y="38" text-anchor="middle" fill="#00ff41" font-size="7">SQL DB</text>
    <rect x="205" y="26" width="60" height="16" rx="3" fill="rgba(0,255,65,0.06)" stroke="#00ff41" stroke-width="0.4"/>
    <text x="235" y="38" text-anchor="middle" fill="#00ff41" font-size="7">Redis</text>
    <rect x="140" y="48" width="60" height="16" rx="3" fill="rgba(0,255,65,0.06)" stroke="#00ff41" stroke-width="0.4"/>
    <text x="170" y="60" text-anchor="middle" fill="#00ff41" font-size="7">Storage</text>
    <rect x="205" y="48" width="60" height="16" rx="3" fill="rgba(0,255,65,0.06)" stroke="#00ff41" stroke-width="0.4"/>
    <text x="235" y="60" text-anchor="middle" fill="#00ff41" font-size="7">App GW</text>

    <text x="10" y="88" fill="#00ff41" font-size="7" opacity="0.4">> Status: ONLINE | Latency: 15ms | Orders: 1,120/day</text>
  </g>

  <!-- SUB: PaaS MegaStore -->
  <g transform="translate(25, 382)">
    <rect x="0" y="0" width="275" height="100" rx="5" fill="rgba(0,255,65,0.04)" stroke="#00ff41" stroke-width="1"/>
    <rect x="0" y="0" width="275" height="20" rx="5" fill="#00ff41" opacity="0.1"/>
    <rect x="0" y="10" width="275" height="10" fill="#00ff41" opacity="0.1"/>
    <circle cx="12" cy="10" r="4" fill="#00ff41" opacity="0.7">
      <animate attributeName="opacity" values="0.7;0.2;0.7" dur="0.9s" repeatCount="indefinite"/>
    </circle>
    <text x="22" y="14" fill="#00ff41" font-size="9" font-weight="bold">SUB: PaaS MegaStore</text>
    <text x="222" y="14" fill="#00ff41" font-size="7" opacity="0.5">Brazil S.</text>

    <rect x="10" y="26" width="120" height="50" rx="4" fill="rgba(0,255,65,0.05)" stroke="#00ff41" stroke-width="0.6" stroke-dasharray="3,2"/>
    <use href="#market-icon" x="15" y="30" width="18" height="18" color="#00ff41" opacity="0.6"/>
    <text x="38" y="42" fill="#00ff41" font-size="8" font-weight="bold">MARKETPLACE</text>
    <use href="#server-icon" x="18" y="50" width="14" height="18" color="#00ff41" opacity="0.5"/>
    <use href="#server-icon" x="36" y="50" width="14" height="18" color="#00ff41" opacity="0.5"/>
    <use href="#server-icon" x="54" y="50" width="14" height="18" color="#00ff41" opacity="0.5"/>
    <use href="#server-icon" x="72" y="50" width="14" height="18" color="#00ff41" opacity="0.5"/>
    <text x="94" y="58" fill="#00ff41" font-size="7" opacity="0.4">AKS</text>
    <text x="94" y="67" fill="#00ff41" font-size="6" opacity="0.3">4 nodes</text>

    <rect x="140" y="26" width="60" height="16" rx="3" fill="rgba(0,255,65,0.06)" stroke="#00ff41" stroke-width="0.4"/>
    <text x="170" y="38" text-anchor="middle" fill="#00ff41" font-size="7">CosmosDB</text>
    <rect x="205" y="26" width="60" height="16" rx="3" fill="rgba(0,255,65,0.06)" stroke="#00ff41" stroke-width="0.4"/>
    <text x="235" y="38" text-anchor="middle" fill="#00ff41" font-size="7">Redis</text>
    <rect x="140" y="48" width="60" height="16" rx="3" fill="rgba(0,255,65,0.06)" stroke="#00ff41" stroke-width="0.4"/>
    <text x="170" y="60" text-anchor="middle" fill="#00ff41" font-size="7">Blob Store</text>
    <rect x="205" y="48" width="60" height="16" rx="3" fill="rgba(0,255,65,0.06)" stroke="#00ff41" stroke-width="0.4"/>
    <text x="235" y="60" text-anchor="middle" fill="#00ff41" font-size="7">Front Door</text>

    <text x="10" y="88" fill="#00ff41" font-size="7" opacity="0.4">> Status: ONLINE | Latency: 28ms | Orders: 3,780/day</text>
  </g>

  <!-- Americas summary -->
  <text x="162" y="505" text-anchor="middle" fill="#00ff41" font-size="8" opacity="0.4">> 3 Subscriptions | 9 AKS nodes | 7,240 orders/day</text>

  <!-- ====================================================================== -->
  <!-- ==================== EUROPE SUBSCRIPTIONS ============================ -->
  <!-- ====================================================================== -->

  <rect x="333" y="155" width="295" height="440" rx="6" fill="url(#rg-eu)" stroke="#0080ff" stroke-width="0.4" stroke-dasharray="8,4" opacity="0.6"/>

  <!-- SUB: PaaS EuroTel -->
  <g transform="translate(343, 162)">
    <rect x="0" y="0" width="275" height="100" rx="5" fill="rgba(0,128,255,0.04)" stroke="#0080ff" stroke-width="1"/>
    <rect x="0" y="0" width="275" height="20" rx="5" fill="#0080ff" opacity="0.1"/>
    <rect x="0" y="10" width="275" height="10" fill="#0080ff" opacity="0.1"/>
    <circle cx="12" cy="10" r="4" fill="#0080ff" opacity="0.7">
      <animate attributeName="opacity" values="0.7;0.3;0.7" dur="1.1s" repeatCount="indefinite"/>
    </circle>
    <text x="22" y="14" fill="#0080ff" font-size="9" font-weight="bold">SUB: PaaS EuroTel</text>
    <text x="222" y="14" fill="#0080ff" font-size="7" opacity="0.5">West EU</text>

    <rect x="10" y="26" width="120" height="50" rx="4" fill="rgba(0,128,255,0.05)" stroke="#0080ff" stroke-width="0.6" stroke-dasharray="3,2"/>
    <use href="#market-icon" x="15" y="30" width="18" height="18" color="#0080ff" opacity="0.6"/>
    <text x="38" y="42" fill="#0080ff" font-size="8" font-weight="bold">MARKETPLACE</text>
    <use href="#server-icon" x="18" y="50" width="14" height="18" color="#0080ff" opacity="0.5"/>
    <use href="#server-icon" x="36" y="50" width="14" height="18" color="#0080ff" opacity="0.5"/>
    <use href="#server-icon" x="54" y="50" width="14" height="18" color="#0080ff" opacity="0.5"/>
    <use href="#server-icon" x="72" y="50" width="14" height="18" color="#0080ff" opacity="0.5"/>
    <use href="#server-icon" x="90" y="50" width="14" height="18" color="#0080ff" opacity="0.5"/>
    <text x="110" y="58" fill="#0080ff" font-size="7" opacity="0.4">AKS</text>
    <text x="110" y="67" fill="#0080ff" font-size="6" opacity="0.3">5 nodes</text>

    <rect x="140" y="26" width="60" height="16" rx="3" fill="rgba(0,128,255,0.06)" stroke="#0080ff" stroke-width="0.4"/>
    <text x="170" y="38" text-anchor="middle" fill="#0080ff" font-size="7">SQL DB</text>
    <rect x="205" y="26" width="60" height="16" rx="3" fill="rgba(0,128,255,0.06)" stroke="#0080ff" stroke-width="0.4"/>
    <text x="235" y="38" text-anchor="middle" fill="#0080ff" font-size="7">Redis</text>
    <rect x="140" y="48" width="60" height="16" rx="3" fill="rgba(0,128,255,0.06)" stroke="#0080ff" stroke-width="0.4"/>
    <text x="170" y="60" text-anchor="middle" fill="#0080ff" font-size="7">Storage</text>
    <rect x="205" y="48" width="60" height="16" rx="3" fill="rgba(0,128,255,0.06)" stroke="#0080ff" stroke-width="0.4"/>
    <text x="235" y="60" text-anchor="middle" fill="#0080ff" font-size="7">App GW</text>

    <text x="10" y="88" fill="#0080ff" font-size="7" opacity="0.4">> Status: ONLINE | Latency: 6ms | Orders: 4,560/day</text>
  </g>

  <!-- SUB: PaaS NordicCloud -->
  <g transform="translate(343, 272)">
    <rect x="0" y="0" width="275" height="100" rx="5" fill="rgba(0,128,255,0.04)" stroke="#0080ff" stroke-width="1"/>
    <rect x="0" y="0" width="275" height="20" rx="5" fill="#0080ff" opacity="0.1"/>
    <rect x="0" y="10" width="275" height="10" fill="#0080ff" opacity="0.1"/>
    <circle cx="12" cy="10" r="4" fill="#0080ff" opacity="0.7">
      <animate attributeName="opacity" values="0.3;0.7;0.3" dur="1.3s" repeatCount="indefinite"/>
    </circle>
    <text x="22" y="14" fill="#0080ff" font-size="9" font-weight="bold">SUB: PaaS NordicCloud</text>
    <text x="222" y="14" fill="#0080ff" font-size="7" opacity="0.5">North EU</text>

    <rect x="10" y="26" width="120" height="50" rx="4" fill="rgba(0,128,255,0.05)" stroke="#0080ff" stroke-width="0.6" stroke-dasharray="3,2"/>
    <use href="#market-icon" x="15" y="30" width="18" height="18" color="#0080ff" opacity="0.6"/>
    <text x="38" y="42" fill="#0080ff" font-size="8" font-weight="bold">MARKETPLACE</text>
    <use href="#server-icon" x="18" y="50" width="14" height="18" color="#0080ff" opacity="0.5"/>
    <use href="#server-icon" x="36" y="50" width="14" height="18" color="#0080ff" opacity="0.5"/>
    <use href="#server-icon" x="54" y="50" width="14" height="18" color="#0080ff" opacity="0.5"/>
    <text x="76" y="58" fill="#0080ff" font-size="7" opacity="0.4">AKS</text>
    <text x="76" y="67" fill="#0080ff" font-size="6" opacity="0.3">3 nodes</text>

    <rect x="140" y="26" width="60" height="16" rx="3" fill="rgba(0,128,255,0.06)" stroke="#0080ff" stroke-width="0.4"/>
    <text x="170" y="38" text-anchor="middle" fill="#0080ff" font-size="7">PostgreSQL</text>
    <rect x="205" y="26" width="60" height="16" rx="3" fill="rgba(0,128,255,0.06)" stroke="#0080ff" stroke-width="0.4"/>
    <text x="235" y="38" text-anchor="middle" fill="#0080ff" font-size="7">Redis</text>
    <rect x="140" y="48" width="60" height="16" rx="3" fill="rgba(0,128,255,0.06)" stroke="#0080ff" stroke-width="0.4"/>
    <text x="170" y="60" text-anchor="middle" fill="#0080ff" font-size="7">Storage</text>
    <rect x="205" y="48" width="60" height="16" rx="3" fill="rgba(0,128,255,0.06)" stroke="#0080ff" stroke-width="0.4"/>
    <text x="235" y="60" text-anchor="middle" fill="#0080ff" font-size="7">CDN</text>

    <text x="10" y="88" fill="#0080ff" font-size="7" opacity="0.4">> Status: ONLINE | Latency: 9ms | Orders: 1,870/day</text>
  </g>

  <!-- SUB: PaaS DACH-Systems -->
  <g transform="translate(343, 382)">
    <rect x="0" y="0" width="275" height="100" rx="5" fill="rgba(0,128,255,0.04)" stroke="#0080ff" stroke-width="1"/>
    <rect x="0" y="0" width="275" height="20" rx="5" fill="#0080ff" opacity="0.1"/>
    <rect x="0" y="10" width="275" height="10" fill="#0080ff" opacity="0.1"/>
    <circle cx="12" cy="10" r="4" fill="#0080ff" opacity="0.7">
      <animate attributeName="opacity" values="0.7;0.2;0.7" dur="0.8s" repeatCount="indefinite"/>
    </circle>
    <text x="22" y="14" fill="#0080ff" font-size="9" font-weight="bold">SUB: PaaS DACH-Systems</text>
    <text x="210" y="14" fill="#0080ff" font-size="7" opacity="0.5">Germany WC</text>

    <rect x="10" y="26" width="120" height="50" rx="4" fill="rgba(0,128,255,0.05)" stroke="#0080ff" stroke-width="0.6" stroke-dasharray="3,2"/>
    <use href="#market-icon" x="15" y="30" width="18" height="18" color="#0080ff" opacity="0.6"/>
    <text x="38" y="42" fill="#0080ff" font-size="8" font-weight="bold">MARKETPLACE</text>
    <use href="#server-icon" x="18" y="50" width="14" height="18" color="#0080ff" opacity="0.5"/>
    <use href="#server-icon" x="36" y="50" width="14" height="18" color="#0080ff" opacity="0.5"/>
    <text x="58" y="58" fill="#0080ff" font-size="7" opacity="0.4">AKS</text>
    <text x="58" y="67" fill="#0080ff" font-size="6" opacity="0.3">2 nodes</text>

    <rect x="140" y="26" width="60" height="16" rx="3" fill="rgba(0,128,255,0.06)" stroke="#0080ff" stroke-width="0.4"/>
    <text x="170" y="38" text-anchor="middle" fill="#0080ff" font-size="7">SQL DB</text>
    <rect x="205" y="26" width="60" height="16" rx="3" fill="rgba(0,128,255,0.06)" stroke="#0080ff" stroke-width="0.4"/>
    <text x="235" y="38" text-anchor="middle" fill="#0080ff" font-size="7">Key Vault</text>
    <rect x="140" y="48" width="60" height="16" rx="3" fill="rgba(0,128,255,0.06)" stroke="#0080ff" stroke-width="0.4"/>
    <text x="170" y="60" text-anchor="middle" fill="#0080ff" font-size="7">Storage</text>
    <rect x="205" y="48" width="60" height="16" rx="3" fill="rgba(0,128,255,0.06)" stroke="#0080ff" stroke-width="0.4"/>
    <text x="235" y="60" text-anchor="middle" fill="#0080ff" font-size="7">App GW</text>

    <text x="10" y="88" fill="#0080ff" font-size="7" opacity="0.4">> Status: ONLINE | Latency: 7ms | Orders: 2,950/day</text>
  </g>

  <text x="480" y="505" text-anchor="middle" fill="#0080ff" font-size="8" opacity="0.4">> 3 Subscriptions | 10 AKS nodes | 9,380 orders/day</text>

  <!-- ====================================================================== -->
  <!-- ==================== APAC SUBSCRIPTIONS ============================== -->
  <!-- ====================================================================== -->

  <rect x="651" y="155" width="295" height="440" rx="6" fill="url(#rg-ap)" stroke="#ff4081" stroke-width="0.4" stroke-dasharray="8,4" opacity="0.6"/>

  <!-- SUB: PaaS TokyoMart -->
  <g transform="translate(661, 162)">
    <rect x="0" y="0" width="275" height="100" rx="5" fill="rgba(255,64,129,0.04)" stroke="#ff4081" stroke-width="1"/>
    <rect x="0" y="0" width="275" height="20" rx="5" fill="#ff4081" opacity="0.1"/>
    <rect x="0" y="10" width="275" height="10" fill="#ff4081" opacity="0.1"/>
    <circle cx="12" cy="10" r="4" fill="#ff4081" opacity="0.7">
      <animate attributeName="opacity" values="0.7;0.3;0.7" dur="1s" repeatCount="indefinite"/>
    </circle>
    <text x="22" y="14" fill="#ff4081" font-size="9" font-weight="bold">SUB: PaaS TokyoMart</text>
    <text x="218" y="14" fill="#ff4081" font-size="7" opacity="0.5">Japan East</text>

    <rect x="10" y="26" width="120" height="50" rx="4" fill="rgba(255,64,129,0.05)" stroke="#ff4081" stroke-width="0.6" stroke-dasharray="3,2"/>
    <use href="#market-icon" x="15" y="30" width="18" height="18" color="#ff4081" opacity="0.6"/>
    <text x="38" y="42" fill="#ff4081" font-size="8" font-weight="bold">MARKETPLACE</text>
    <use href="#server-icon" x="18" y="50" width="14" height="18" color="#ff4081" opacity="0.5"/>
    <use href="#server-icon" x="36" y="50" width="14" height="18" color="#ff4081" opacity="0.5"/>
    <use href="#server-icon" x="54" y="50" width="14" height="18" color="#ff4081" opacity="0.5"/>
    <text x="76" y="58" fill="#ff4081" font-size="7" opacity="0.4">AKS</text>
    <text x="76" y="67" fill="#ff4081" font-size="6" opacity="0.3">3 nodes</text>

    <rect x="140" y="26" width="60" height="16" rx="3" fill="rgba(255,64,129,0.06)" stroke="#ff4081" stroke-width="0.4"/>
    <text x="170" y="38" text-anchor="middle" fill="#ff4081" font-size="7">CosmosDB</text>
    <rect x="205" y="26" width="60" height="16" rx="3" fill="rgba(255,64,129,0.06)" stroke="#ff4081" stroke-width="0.4"/>
    <text x="235" y="38" text-anchor="middle" fill="#ff4081" font-size="7">Redis</text>
    <rect x="140" y="48" width="60" height="16" rx="3" fill="rgba(255,64,129,0.06)" stroke="#ff4081" stroke-width="0.4"/>
    <text x="170" y="60" text-anchor="middle" fill="#ff4081" font-size="7">Blob Store</text>
    <rect x="205" y="48" width="60" height="16" rx="3" fill="rgba(255,64,129,0.06)" stroke="#ff4081" stroke-width="0.4"/>
    <text x="235" y="60" text-anchor="middle" fill="#ff4081" font-size="7">App GW</text>

    <text x="10" y="88" fill="#ff4081" font-size="7" opacity="0.4">> Status: ONLINE | Latency: 14ms | Orders: 2,100/day</text>
  </g>

  <!-- SUB: PaaS SingaporeTech -->
  <g transform="translate(661, 272)">
    <rect x="0" y="0" width="275" height="100" rx="5" fill="rgba(255,64,129,0.04)" stroke="#ff4081" stroke-width="1"/>
    <rect x="0" y="0" width="275" height="20" rx="5" fill="#ff4081" opacity="0.1"/>
    <rect x="0" y="10" width="275" height="10" fill="#ff4081" opacity="0.1"/>
    <circle cx="12" cy="10" r="4" fill="#ff4081" opacity="0.7">
      <animate attributeName="opacity" values="0.3;0.7;0.3" dur="1.4s" repeatCount="indefinite"/>
    </circle>
    <text x="22" y="14" fill="#ff4081" font-size="9" font-weight="bold">SUB: PaaS SingaporeTech</text>
    <text x="230" y="14" fill="#ff4081" font-size="7" opacity="0.5">SE Asia</text>

    <rect x="10" y="26" width="120" height="50" rx="4" fill="rgba(255,64,129,0.05)" stroke="#ff4081" stroke-width="0.6" stroke-dasharray="3,2"/>
    <use href="#market-icon" x="15" y="30" width="18" height="18" color="#ff4081" opacity="0.6"/>
    <text x="38" y="42" fill="#ff4081" font-size="8" font-weight="bold">MARKETPLACE</text>
    <use href="#server-icon" x="18" y="50" width="14" height="18" color="#ff4081" opacity="0.5"/>
    <use href="#server-icon" x="36" y="50" width="14" height="18" color="#ff4081" opacity="0.5"/>
    <use href="#server-icon" x="54" y="50" width="14" height="18" color="#ff4081" opacity="0.5"/>
    <use href="#server-icon" x="72" y="50" width="14" height="18" color="#ff4081" opacity="0.5"/>
    <text x="94" y="58" fill="#ff4081" font-size="7" opacity="0.4">AKS</text>
    <text x="94" y="67" fill="#ff4081" font-size="6" opacity="0.3">4 nodes</text>

    <rect x="140" y="26" width="60" height="16" rx="3" fill="rgba(255,64,129,0.06)" stroke="#ff4081" stroke-width="0.4"/>
    <text x="170" y="38" text-anchor="middle" fill="#ff4081" font-size="7">SQL DB</text>
    <rect x="205" y="26" width="60" height="16" rx="3" fill="rgba(255,64,129,0.06)" stroke="#ff4081" stroke-width="0.4"/>
    <text x="235" y="38" text-anchor="middle" fill="#ff4081" font-size="7">Redis</text>
    <rect x="140" y="48" width="60" height="16" rx="3" fill="rgba(255,64,129,0.06)" stroke="#ff4081" stroke-width="0.4"/>
    <text x="170" y="60" text-anchor="middle" fill="#ff4081" font-size="7">Storage</text>
    <rect x="205" y="48" width="60" height="16" rx="3" fill="rgba(255,64,129,0.06)" stroke="#ff4081" stroke-width="0.4"/>
    <text x="235" y="60" text-anchor="middle" fill="#ff4081" font-size="7">Front Door</text>

    <text x="10" y="88" fill="#ff4081" font-size="7" opacity="0.4">> Status: ONLINE | Latency: 18ms | Orders: 1,650/day</text>
  </g>

  <!-- SUB: PaaS IndiaConnect -->
  <g transform="translate(661, 382)">
    <rect x="0" y="0" width="275" height="100" rx="5" fill="rgba(255,64,129,0.04)" stroke="#ff4081" stroke-width="1"/>
    <rect x="0" y="0" width="275" height="20" rx="5" fill="#ff4081" opacity="0.1"/>
    <rect x="0" y="10" width="275" height="10" fill="#ff4081" opacity="0.1"/>
    <circle cx="12" cy="10" r="4" fill="#ff4081" opacity="0.7">
      <animate attributeName="opacity" values="0.7;0.2;0.7" dur="1.6s" repeatCount="indefinite"/>
    </circle>
    <text x="22" y="14" fill="#ff4081" font-size="9" font-weight="bold">SUB: PaaS IndiaConnect</text>
    <text x="222" y="14" fill="#ff4081" font-size="7" opacity="0.5">Central IN</text>

    <rect x="10" y="26" width="120" height="50" rx="4" fill="rgba(255,64,129,0.05)" stroke="#ff4081" stroke-width="0.6" stroke-dasharray="3,2"/>
    <use href="#market-icon" x="15" y="30" width="18" height="18" color="#ff4081" opacity="0.6"/>
    <text x="38" y="42" fill="#ff4081" font-size="8" font-weight="bold">MARKETPLACE</text>
    <use href="#server-icon" x="18" y="50" width="14" height="18" color="#ff4081" opacity="0.5"/>
    <use href="#server-icon" x="36" y="50" width="14" height="18" color="#ff4081" opacity="0.5"/>
    <text x="58" y="58" fill="#ff4081" font-size="7" opacity="0.4">AKS</text>
    <text x="58" y="67" fill="#ff4081" font-size="6" opacity="0.3">2 nodes</text>

    <rect x="140" y="26" width="60" height="16" rx="3" fill="rgba(255,64,129,0.06)" stroke="#ff4081" stroke-width="0.4"/>
    <text x="170" y="38" text-anchor="middle" fill="#ff4081" font-size="7">SQL DB</text>
    <rect x="205" y="26" width="60" height="16" rx="3" fill="rgba(255,64,129,0.06)" stroke="#ff4081" stroke-width="0.4"/>
    <text x="235" y="38" text-anchor="middle" fill="#ff4081" font-size="7">Redis</text>
    <rect x="140" y="48" width="60" height="16" rx="3" fill="rgba(255,64,129,0.06)" stroke="#ff4081" stroke-width="0.4"/>
    <text x="170" y="60" text-anchor="middle" fill="#ff4081" font-size="7">Storage</text>
    <rect x="205" y="48" width="60" height="16" rx="3" fill="rgba(255,64,129,0.06)" stroke="#ff4081" stroke-width="0.4"/>
    <text x="235" y="60" text-anchor="middle" fill="#ff4081" font-size="7">App GW</text>

    <text x="10" y="88" fill="#ff4081" font-size="7" opacity="0.4">> Status: ONLINE | Latency: 25ms | Orders: 980/day</text>
  </g>

  <text x="798" y="505" text-anchor="middle" fill="#ff4081" font-size="8" opacity="0.4">> 3 Subscriptions | 9 AKS nodes | 4,730 orders/day</text>

  <!-- ==================== CONCEPT NOTE ==================== -->
  <rect x="40" y="520" width="880" height="35" rx="5" fill="rgba(192,132,252,0.04)" stroke="#c084fc" stroke-width="0.6"/>
  <text x="480" y="535" text-anchor="middle" fill="#c084fc" font-size="9" opacity="0.7">
    DEDICATED SUBSCRIPTION PER CLIENT — Each client gets an isolated Azure subscription with its own Marketplace instance,
  </text>
  <text x="480" y="547" text-anchor="middle" fill="#c084fc" font-size="9" opacity="0.7">
    AKS cluster, databases, and networking. Full tenant isolation at the infrastructure level.
  </text>

  <!-- ==================== INTERNET LAYER ==================== -->
  <rect x="40" y="575" width="880" height="24" rx="5" fill="rgba(0,255,255,0.04)" stroke="#00ffff" stroke-width="0.8"/>
  <text x="480" y="592" text-anchor="middle" fill="#00ffff" font-size="11" font-weight="bold" filter="url(#glow-cyan)">
    INTERNET
    <animate attributeName="opacity" values="1;0.6;1" dur="2.5s" repeatCount="indefinite"/>
  </text>
  <circle cx="70" cy="587" r="7" fill="none" stroke="#00ffff" stroke-width="0.7" opacity="0.5"/>
  <ellipse cx="70" cy="587" rx="3.5" ry="7" fill="none" stroke="#00ffff" stroke-width="0.4" opacity="0.4"/>
  <line x1="63" y1="587" x2="77" y2="587" stroke="#00ffff" stroke-width="0.4" opacity="0.4"/>
  <circle cx="890" cy="587" r="7" fill="none" stroke="#00ffff" stroke-width="0.7" opacity="0.5"/>
  <ellipse cx="890" cy="587" rx="3.5" ry="7" fill="none" stroke="#00ffff" stroke-width="0.4" opacity="0.4"/>
  <line x1="883" y1="587" x2="897" y2="587" stroke="#00ffff" stroke-width="0.4" opacity="0.4"/>

  <!-- Subs -> Internet connection lines -->
  <line x1="162" y1="510" x2="162" y2="575" stroke="#00ffff" stroke-width="0.5" opacity="0.2" stroke-dasharray="3,5">
    <animate attributeName="stroke-dashoffset" values="0;8" dur="1.5s" repeatCount="indefinite"/>
  </line>
  <line x1="480" y1="510" x2="480" y2="575" stroke="#00ffff" stroke-width="0.5" opacity="0.2" stroke-dasharray="3,5">
    <animate attributeName="stroke-dashoffset" values="0;8" dur="1.5s" repeatCount="indefinite"/>
  </line>
  <line x1="798" y1="510" x2="798" y2="575" stroke="#00ffff" stroke-width="0.5" opacity="0.2" stroke-dasharray="3,5">
    <animate attributeName="stroke-dashoffset" values="0;8" dur="1.5s" repeatCount="indefinite"/>
  </line>

  <!-- ==================== CUSTOMERS ==================== -->
  <!-- Americas Clients -->
  <g transform="translate(25, 615)">
    <rect x="0" y="0" width="275" height="95" rx="5" fill="rgba(0,255,255,0.03)" stroke="#00ffff" stroke-width="0.5" opacity="0.6"/>
    <text x="137" y="16" text-anchor="middle" fill="#00ffff" font-size="9" opacity="0.8">CUSTOMERS — AMERICAS</text>

    <g transform="translate(10, 25)">
      <use href="#user-icon" x="0" y="0" width="14" height="14" color="#00ff41"/>
      <text x="18" y="6" fill="#00ff41" font-size="7" font-weight="bold">TechCorp Inc.</text>
      <text x="18" y="15" fill="#00ff41" font-size="6" opacity="0.4">-> SUB PaaS TechCorp</text>
      <circle cx="7" cy="7" r="3" fill="none" stroke="#00ff41" stroke-width="0.3" opacity="0">
        <animate attributeName="r" values="3;9" dur="2s" repeatCount="indefinite"/>
        <animate attributeName="opacity" values="0.5;0" dur="2s" repeatCount="indefinite"/>
      </circle>
    </g>
    <g transform="translate(10, 48)">
      <use href="#user-icon" x="0" y="0" width="14" height="14" color="#00ff41"/>
      <text x="18" y="6" fill="#00ff41" font-size="7" font-weight="bold">GlobalNet LLC</text>
      <text x="18" y="15" fill="#00ff41" font-size="6" opacity="0.4">-> SUB PaaS GlobalNet</text>
    </g>
    <g transform="translate(140, 25)">
      <use href="#user-icon" x="0" y="0" width="14" height="14" color="#00ff41"/>
      <text x="18" y="6" fill="#00ff41" font-size="7" font-weight="bold">MegaStore BR</text>
      <text x="18" y="15" fill="#00ff41" font-size="6" opacity="0.4">-> SUB PaaS MegaStore</text>
    </g>

    <text x="10" y="82" fill="#00ff41" font-size="7" opacity="0.3">> 3 clients | dedicated subs</text>
  </g>

  <!-- Internet -> Client traffic -->
  <line x1="162" y1="599" x2="162" y2="615" stroke="#00ffff" stroke-width="0.5" opacity="0.3" stroke-dasharray="2,2">
    <animate attributeName="stroke-dashoffset" values="0;4" dur="0.8s" repeatCount="indefinite"/>
  </line>
  <circle r="2" fill="#00ffff" opacity="0.6">
    <animateMotion dur="2s" repeatCount="indefinite" path="M162,615 L162,599"/>
  </circle>

  <!-- Europe Clients -->
  <g transform="translate(340, 615)">
    <rect x="0" y="0" width="275" height="95" rx="5" fill="rgba(0,255,255,0.03)" stroke="#00ffff" stroke-width="0.5" opacity="0.6"/>
    <text x="137" y="16" text-anchor="middle" fill="#00ffff" font-size="9" opacity="0.8">CUSTOMERS — EUROPE</text>

    <g transform="translate(10, 25)">
      <use href="#user-icon" x="0" y="0" width="14" height="14" color="#0080ff"/>
      <text x="18" y="6" fill="#0080ff" font-size="7" font-weight="bold">EuroTel GmbH</text>
      <text x="18" y="15" fill="#0080ff" font-size="6" opacity="0.4">-> SUB PaaS EuroTel</text>
      <circle cx="7" cy="7" r="3" fill="none" stroke="#0080ff" stroke-width="0.3" opacity="0">
        <animate attributeName="r" values="3;9" dur="2.3s" repeatCount="indefinite"/>
        <animate attributeName="opacity" values="0.5;0" dur="2.3s" repeatCount="indefinite"/>
      </circle>
    </g>
    <g transform="translate(10, 48)">
      <use href="#user-icon" x="0" y="0" width="14" height="14" color="#0080ff"/>
      <text x="18" y="6" fill="#0080ff" font-size="7" font-weight="bold">NordicCloud AB</text>
      <text x="18" y="15" fill="#0080ff" font-size="6" opacity="0.4">-> SUB PaaS NordicCloud</text>
    </g>
    <g transform="translate(140, 25)">
      <use href="#user-icon" x="0" y="0" width="14" height="14" color="#0080ff"/>
      <text x="18" y="6" fill="#0080ff" font-size="7" font-weight="bold">DACH-Systems AG</text>
      <text x="18" y="15" fill="#0080ff" font-size="6" opacity="0.4">-> SUB PaaS DACH-Systems</text>
    </g>

    <text x="10" y="82" fill="#0080ff" font-size="7" opacity="0.3">> 3 clients | dedicated subs</text>
  </g>

  <line x1="480" y1="599" x2="480" y2="615" stroke="#00ffff" stroke-width="0.5" opacity="0.3" stroke-dasharray="2,2">
    <animate attributeName="stroke-dashoffset" values="0;4" dur="0.8s" repeatCount="indefinite"/>
  </line>
  <circle r="2" fill="#00ffff" opacity="0.6">
    <animateMotion dur="2.2s" repeatCount="indefinite" path="M480,615 L480,599"/>
  </circle>

  <!-- APAC Clients -->
  <g transform="translate(655, 615)">
    <rect x="0" y="0" width="275" height="95" rx="5" fill="rgba(0,255,255,0.03)" stroke="#00ffff" stroke-width="0.5" opacity="0.6"/>
    <text x="137" y="16" text-anchor="middle" fill="#00ffff" font-size="9" opacity="0.8">CUSTOMERS — APAC</text>

    <g transform="translate(10, 25)">
      <use href="#user-icon" x="0" y="0" width="14" height="14" color="#ff4081"/>
      <text x="18" y="6" fill="#ff4081" font-size="7" font-weight="bold">TokyoMart Co.</text>
      <text x="18" y="15" fill="#ff4081" font-size="6" opacity="0.4">-> SUB PaaS TokyoMart</text>
      <circle cx="7" cy="7" r="3" fill="none" stroke="#ff4081" stroke-width="0.3" opacity="0">
        <animate attributeName="r" values="3;9" dur="1.8s" repeatCount="indefinite"/>
        <animate attributeName="opacity" values="0.5;0" dur="1.8s" repeatCount="indefinite"/>
      </circle>
    </g>
    <g transform="translate(10, 48)">
      <use href="#user-icon" x="0" y="0" width="14" height="14" color="#ff4081"/>
      <text x="18" y="6" fill="#ff4081" font-size="7" font-weight="bold">SingaporeTech Pte</text>
      <text x="18" y="15" fill="#ff4081" font-size="6" opacity="0.4">-> SUB PaaS SingaporeTech</text>
    </g>
    <g transform="translate(140, 25)">
      <use href="#user-icon" x="0" y="0" width="14" height="14" color="#ff4081"/>
      <text x="18" y="6" fill="#ff4081" font-size="7" font-weight="bold">IndiaConnect Ltd</text>
      <text x="18" y="15" fill="#ff4081" font-size="6" opacity="0.4">-> SUB PaaS IndiaConnect</text>
    </g>

    <text x="10" y="82" fill="#ff4081" font-size="7" opacity="0.3">> 3 clients | dedicated subs</text>
  </g>

  <line x1="798" y1="599" x2="798" y2="615" stroke="#00ffff" stroke-width="0.5" opacity="0.3" stroke-dasharray="2,2">
    <animate attributeName="stroke-dashoffset" values="0;4" dur="0.8s" repeatCount="indefinite"/>
  </line>
  <circle r="2" fill="#00ffff" opacity="0.6">
    <animateMotion dur="2.5s" repeatCount="indefinite" path="M798,615 L798,599"/>
  </circle>

  <!-- ==================== FOOTER STATUS BAR ==================== -->
  <rect x="0" y="800" width="960" height="20" fill="rgba(0,255,65,0.04)"/>
  <text x="15" y="813" fill="#00ff41" font-size="8" opacity="0.5">
    > GLOBAL: ALL SYSTEMS OPERATIONAL | SUBSCRIPTIONS: 9 ACTIVE | AKS NODES: 28 | TOTAL ORDERS: 21,350/day | REGIONS: 3 | UPTIME: 99.99%
    <animate attributeName="opacity" values="0.5;0.8;0.5" dur="4s" repeatCount="indefinite"/>
  </text>
</svg>